<mxfile host="app.diagrams.net" modified="2021-03-13T10:13:23.401Z" agent="5.0 (Macintosh; Intel Mac OS X 10_15_6) AppleWebKit/605.1.15 (KHTML, like Gecko) Version/14.0.3 Safari/605.1.15" etag="M9PORg7qMFiCSe45Bd9O" version="14.4.8" type="github">
  <diagram name="Page-1" id="c7558073-3199-34d8-9f00-42111426c3f3">
    <mxGraphModel dx="946" dy="645" grid="1" gridSize="10" guides="1" tooltips="1" connect="1" arrows="1" fold="1" page="1" pageScale="1" pageWidth="826" pageHeight="1169" background="#ffffff" math="0" shadow="0">
      <root>
        <mxCell id="0" />
        <mxCell id="1" parent="0" />
        <mxCell id="IansN6ABp4L9Z8qVWzRj-96" value="" style="aspect=fixed;pointerEvents=1;shadow=0;dashed=0;html=1;strokeColor=none;labelPosition=center;verticalLabelPosition=bottom;verticalAlign=top;align=center;shape=mxgraph.mscae.enterprise.user_permissions;fillColor=#0078D7;" vertex="1" parent="1">
          <mxGeometry x="120" y="60" width="94" height="100" as="geometry" />
        </mxCell>
        <mxCell id="IansN6ABp4L9Z8qVWzRj-97" value="Admin" style="text;html=1;strokeColor=none;fillColor=none;align=center;verticalAlign=middle;whiteSpace=wrap;rounded=0;fontStyle=1" vertex="1" parent="1">
          <mxGeometry x="147" y="160" width="40" height="20" as="geometry" />
        </mxCell>
        <mxCell id="IansN6ABp4L9Z8qVWzRj-98" value="" style="pointerEvents=1;shadow=0;dashed=0;html=1;strokeColor=none;labelPosition=center;verticalLabelPosition=bottom;verticalAlign=top;align=center;fillColor=#515151;shape=mxgraph.mscae.system_center.cloud_distribution_point" vertex="1" parent="1">
          <mxGeometry x="460" y="50" width="90" height="130" as="geometry" />
        </mxCell>
        <mxCell id="IansN6ABp4L9Z8qVWzRj-99" value="Portal" style="text;html=1;strokeColor=none;fillColor=none;align=center;verticalAlign=middle;whiteSpace=wrap;rounded=0;fontStyle=1" vertex="1" parent="1">
          <mxGeometry x="485" y="190" width="40" height="20" as="geometry" />
        </mxCell>
        <mxCell id="IansN6ABp4L9Z8qVWzRj-100" value="" style="endArrow=classic;html=1;exitX=0.5;exitY=1;exitDx=0;exitDy=0;" edge="1" parent="1" source="IansN6ABp4L9Z8qVWzRj-97">
          <mxGeometry width="50" height="50" relative="1" as="geometry">
            <mxPoint x="390" y="360" as="sourcePoint" />
            <mxPoint x="167" y="560" as="targetPoint" />
          </mxGeometry>
        </mxCell>
        <mxCell id="IansN6ABp4L9Z8qVWzRj-101" value="" style="endArrow=classic;html=1;exitX=0.5;exitY=1;exitDx=0;exitDy=0;" edge="1" parent="1" source="IansN6ABp4L9Z8qVWzRj-99">
          <mxGeometry width="50" height="50" relative="1" as="geometry">
            <mxPoint x="390" y="360" as="sourcePoint" />
            <mxPoint x="505" y="550" as="targetPoint" />
          </mxGeometry>
        </mxCell>
        <mxCell id="IansN6ABp4L9Z8qVWzRj-102" value="" style="endArrow=classic;html=1;" edge="1" parent="1">
          <mxGeometry width="50" height="50" relative="1" as="geometry">
            <mxPoint x="190" y="240" as="sourcePoint" />
            <mxPoint x="480" y="240" as="targetPoint" />
          </mxGeometry>
        </mxCell>
        <mxCell id="IansN6ABp4L9Z8qVWzRj-103" value="Manage JobSeekers" style="text;html=1;strokeColor=none;fillColor=none;align=center;verticalAlign=middle;whiteSpace=wrap;rounded=0;" vertex="1" parent="1">
          <mxGeometry x="310" y="200" width="40" height="20" as="geometry" />
        </mxCell>
        <mxCell id="IansN6ABp4L9Z8qVWzRj-104" value="" style="endArrow=classic;html=1;" edge="1" parent="1">
          <mxGeometry width="50" height="50" relative="1" as="geometry">
            <mxPoint x="190" y="310" as="sourcePoint" />
            <mxPoint x="480" y="310" as="targetPoint" />
          </mxGeometry>
        </mxCell>
        <mxCell id="IansN6ABp4L9Z8qVWzRj-105" value="Manage Recruiters" style="text;html=1;strokeColor=none;fillColor=none;align=center;verticalAlign=middle;whiteSpace=wrap;rounded=0;" vertex="1" parent="1">
          <mxGeometry x="320" y="270" width="40" height="20" as="geometry" />
        </mxCell>
        <mxCell id="IansN6ABp4L9Z8qVWzRj-106" value="" style="endArrow=classic;html=1;" edge="1" parent="1">
          <mxGeometry width="50" height="50" relative="1" as="geometry">
            <mxPoint x="187" y="380" as="sourcePoint" />
            <mxPoint x="477" y="380" as="targetPoint" />
          </mxGeometry>
        </mxCell>
        <mxCell id="IansN6ABp4L9Z8qVWzRj-107" value="Manage Payment System" style="text;html=1;strokeColor=none;fillColor=none;align=center;verticalAlign=middle;whiteSpace=wrap;rounded=0;" vertex="1" parent="1">
          <mxGeometry x="317" y="340" width="40" height="20" as="geometry" />
        </mxCell>
        <mxCell id="IansN6ABp4L9Z8qVWzRj-108" value="" style="endArrow=classic;html=1;" edge="1" parent="1">
          <mxGeometry width="50" height="50" relative="1" as="geometry">
            <mxPoint x="192" y="440" as="sourcePoint" />
            <mxPoint x="482" y="440" as="targetPoint" />
          </mxGeometry>
        </mxCell>
        <mxCell id="IansN6ABp4L9Z8qVWzRj-109" value="Admin Dashboard/ Report,Insights" style="text;html=1;strokeColor=none;fillColor=none;align=center;verticalAlign=middle;whiteSpace=wrap;rounded=0;" vertex="1" parent="1">
          <mxGeometry x="322" y="400" width="40" height="20" as="geometry" />
        </mxCell>
        <mxCell id="IansN6ABp4L9Z8qVWzRj-110" value="" style="endArrow=classic;html=1;" edge="1" parent="1">
          <mxGeometry width="50" height="50" relative="1" as="geometry">
            <mxPoint x="192" y="500" as="sourcePoint" />
            <mxPoint x="482" y="500" as="targetPoint" />
          </mxGeometry>
        </mxCell>
        <mxCell id="IansN6ABp4L9Z8qVWzRj-111" value="User Rating Criteria&lt;br&gt;Management" style="text;html=1;strokeColor=none;fillColor=none;align=center;verticalAlign=middle;whiteSpace=wrap;rounded=0;" vertex="1" parent="1">
          <mxGeometry x="322" y="460" width="40" height="20" as="geometry" />
        </mxCell>
        <mxCell id="IansN6ABp4L9Z8qVWzRj-112" value="" style="endArrow=classic;html=1;" edge="1" parent="1">
          <mxGeometry width="50" height="50" relative="1" as="geometry">
            <mxPoint x="192" y="550" as="sourcePoint" />
            <mxPoint x="482" y="550" as="targetPoint" />
          </mxGeometry>
        </mxCell>
        <mxCell id="IansN6ABp4L9Z8qVWzRj-113" value="Revenue Management" style="text;html=1;strokeColor=none;fillColor=none;align=center;verticalAlign=middle;whiteSpace=wrap;rounded=0;" vertex="1" parent="1">
          <mxGeometry x="322" y="510" width="40" height="20" as="geometry" />
        </mxCell>
      </root>
    </mxGraphModel>
  </diagram>
</mxfile>
